<svg width="120" height="108" viewBox="0 0 120 108" fill="none" xmlns="http://www.w3.org/2000/svg">
<g filter="url(#filter0_ddif_50_179)">
<path d="M74.1648 42.7698C74.023 42.5819 73.8333 42.4358 73.615 42.347L72.9921 42.093C70.6188 41.1248 68.905 40.4253 66.8659 40.0434C65.6401 39.8137 64.3178 40.5123 63.6409 41.7424C62.5248 41.6389 61.3443 41.6041 60.0315 41.638C58.6683 41.6058 57.4773 41.638 56.3594 41.7424C55.693 40.5323 54.375 39.8511 53.1475 40.0791C50.9509 40.4897 49.1423 41.2257 46.3854 42.3462C46.167 42.4349 45.9774 42.5811 45.8356 42.769C41.2048 48.9065 39.3596 55.5669 40.1948 63.1294C40.24 63.5339 40.4705 63.8941 40.8194 64.1046C43.9095 65.9637 46.5863 67.2391 49.2449 68.1169C50.5272 68.5405 51.9513 68.0577 52.7134 66.945L53.9018 65.206C55.8557 65.6993 57.8923 65.9681 60.001 66.0081C62.0567 65.9689 64.0846 65.6984 66.0403 65.2025L67.293 66.9833C67.8767 67.8141 68.8032 68.2787 69.7732 68.2787C70.0934 68.2787 70.4179 68.2282 70.7363 68.1229C73.4001 67.2452 76.083 65.9681 79.1809 64.1046C79.5289 63.895 79.7603 63.5339 79.8056 63.1294C80.6399 55.566 78.7947 48.9056 74.1648 42.7698ZM53.4598 58.2385C51.7843 58.2385 50.4054 56.4734 50.4054 54.3281C50.4054 52.1828 51.7843 50.4176 53.4598 50.4176C55.1354 50.4176 56.5143 52.1828 56.5143 54.3281C56.5143 56.4734 55.1354 58.2385 53.4598 58.2385ZM65.6392 58.262C63.9793 58.262 62.6135 56.4864 62.6135 54.3281C62.6135 52.1697 63.9793 50.3941 65.6392 50.3941C67.2991 50.3941 68.6649 52.1697 68.6649 54.3281C68.6649 56.4864 67.2991 58.262 65.6392 58.262Z" fill="url(#paint0_linear_50_179)"/>
<path d="M74.1648 42.7698C74.023 42.5819 73.8333 42.4358 73.615 42.347L72.9921 42.093C70.6188 41.1248 68.905 40.4253 66.8659 40.0434C65.6401 39.8137 64.3178 40.5123 63.6409 41.7424C62.5248 41.6389 61.3443 41.6041 60.0315 41.638C58.6683 41.6058 57.4773 41.638 56.3594 41.7424C55.693 40.5323 54.375 39.8511 53.1475 40.0791C50.9509 40.4897 49.1423 41.2257 46.3854 42.3462C46.167 42.4349 45.9774 42.5811 45.8356 42.769C41.2048 48.9065 39.3596 55.5669 40.1948 63.1294C40.24 63.5339 40.4705 63.8941 40.8194 64.1046C43.9095 65.9637 46.5863 67.2391 49.2449 68.1169C50.5272 68.5405 51.9513 68.0577 52.7134 66.945L53.9018 65.206C55.8557 65.6993 57.8923 65.9681 60.001 66.0081C62.0567 65.9689 64.0846 65.6984 66.0403 65.2025L67.293 66.9833C67.8767 67.8141 68.8032 68.2787 69.7732 68.2787C70.0934 68.2787 70.4179 68.2282 70.7363 68.1229C73.4001 67.2452 76.083 65.9681 79.1809 64.1046C79.5289 63.895 79.7603 63.5339 79.8056 63.1294C80.6399 55.566 78.7947 48.9056 74.1648 42.7698ZM53.4598 58.2385C51.7843 58.2385 50.4054 56.4734 50.4054 54.3281C50.4054 52.1828 51.7843 50.4176 53.4598 50.4176C55.1354 50.4176 56.5143 52.1828 56.5143 54.3281C56.5143 56.4734 55.1354 58.2385 53.4598 58.2385ZM65.6392 58.262C63.9793 58.262 62.6135 56.4864 62.6135 54.3281C62.6135 52.1697 63.9793 50.3941 65.6392 50.3941C67.2991 50.3941 68.6649 52.1697 68.6649 54.3281C68.6649 56.4864 67.2991 58.262 65.6392 58.262Z" fill="white" fill-opacity="0.9"/>
</g>
<defs>
<filter id="filter0_ddif_50_179" x="0.566757" y="0.566757" width="118.866" height="107.145" filterUnits="userSpaceOnUse" color-interpolation-filters="sRGB">
<feFlood flood-opacity="0" result="BackgroundImageFix"/>
<feColorMatrix in="SourceAlpha" type="matrix" values="0 0 0 0 0 0 0 0 0 0 0 0 0 0 0 0 0 0 127 0" result="hardAlpha"/>
<feOffset/>
<feGaussianBlur stdDeviation="8.30174"/>
<feColorMatrix type="matrix" values="0 0 0 0 0.45098 0 0 0 0 1 0 0 0 0 0.890196 0 0 0 0.5 0"/>
<feBlend mode="normal" in2="BackgroundImageFix" result="effect1_dropShadow_50_179"/>
<feColorMatrix in="SourceAlpha" type="matrix" values="0 0 0 0 0 0 0 0 0 0 0 0 0 0 0 0 0 0 127 0" result="hardAlpha"/>
<feOffset/>
<feGaussianBlur stdDeviation="19.7166"/>
<feColorMatrix type="matrix" values="0 0 0 0 0.45098 0 0 0 0 1 0 0 0 0 0.890196 0 0 0 0.3 0"/>
<feBlend mode="normal" in2="effect1_dropShadow_50_179" result="effect2_dropShadow_50_179"/>
<feBlend mode="normal" in="SourceGraphic" in2="effect2_dropShadow_50_179" result="shape"/>
<feColorMatrix in="SourceAlpha" type="matrix" values="0 0 0 0 0 0 0 0 0 0 0 0 0 0 0 0 0 0 127 0" result="hardAlpha"/>
<feOffset/>
<feGaussianBlur stdDeviation="8.30174"/>
<feComposite in2="hardAlpha" operator="arithmetic" k2="-1" k3="1"/>
<feColorMatrix type="matrix" values="0 0 0 0 0.45098 0 0 0 0 1 0 0 0 0 0.890196 0 0 0 0.6 0"/>
<feBlend mode="normal" in2="shape" result="effect3_innerShadow_50_179"/>
<feGaussianBlur stdDeviation="0.518858" result="effect4_foregroundBlur_50_179"/>
</filter>
<linearGradient id="paint0_linear_50_179" x1="60.1363" y1="30.6465" x2="60.1363" y2="78.3852" gradientUnits="userSpaceOnUse">
<stop stop-color="white"/>
<stop offset="1" stop-color="white" stop-opacity="0"/>
</linearGradient>
</defs>
</svg>
