<svg width="104" height="111" viewBox="0 0 104 111" fill="none" xmlns="http://www.w3.org/2000/svg">
<g filter="url(#filter0_ddif_50_187)">
<path d="M56.1944 40.8347L40.0425 56.0965L40.0424 56.0965C39.8349 56.2926 39.7312 56.3906 39.681 56.457C39.2313 57.0513 39.5664 57.9111 40.2997 58.0443C40.3815 58.0591 40.5243 58.0611 40.8098 58.065L49.0069 58.1776C49.1004 58.1789 49.1472 58.1795 49.1814 58.1848C49.4789 58.2303 49.6691 58.5264 49.5867 58.8159C49.5772 58.8491 49.5583 58.8919 49.5206 58.9775L45.2174 68.7352C45.0013 69.2252 44.8933 69.4701 44.872 69.5643C44.6741 70.4375 45.6354 71.1107 46.3883 70.6263C46.4695 70.574 46.6628 70.3887 47.0493 70.0182L63.0725 54.6583C63.2697 54.4692 63.3683 54.3747 63.4174 54.3092C63.8563 53.7236 63.5382 52.8805 62.8219 52.7307C62.7418 52.7139 62.6053 52.7081 62.3324 52.6964L54.407 52.3571C54.3164 52.3532 54.2711 52.3513 54.2376 52.3453C53.9471 52.2928 53.765 52.0015 53.8452 51.7173C53.8544 51.6847 53.8726 51.6431 53.9088 51.56L53.9088 51.56L58.0225 42.1186C58.2307 41.6408 58.3348 41.4019 58.3557 41.308C58.5493 40.4388 57.5958 39.7691 56.8439 40.2462C56.7627 40.2977 56.5733 40.4767 56.1945 40.8346L56.1944 40.8347Z" fill="url(#paint0_linear_50_187)" fill-opacity="0.2"/>
<path d="M56.1944 40.8347L40.0425 56.0965L40.0424 56.0965C39.8349 56.2926 39.7312 56.3906 39.681 56.457C39.2313 57.0513 39.5664 57.9111 40.2997 58.0443C40.3815 58.0591 40.5243 58.0611 40.8098 58.065L49.0069 58.1776C49.1004 58.1789 49.1472 58.1795 49.1814 58.1848C49.4789 58.2303 49.6691 58.5264 49.5867 58.8159C49.5772 58.8491 49.5583 58.8919 49.5206 58.9775L45.2174 68.7352C45.0013 69.2252 44.8933 69.4701 44.872 69.5643C44.6741 70.4375 45.6354 71.1107 46.3883 70.6263C46.4695 70.574 46.6628 70.3887 47.0493 70.0182L63.0725 54.6583C63.2697 54.4692 63.3683 54.3747 63.4174 54.3092C63.8563 53.7236 63.5382 52.8805 62.8219 52.7307C62.7418 52.7139 62.6053 52.7081 62.3324 52.6964L54.407 52.3571C54.3164 52.3532 54.2711 52.3513 54.2376 52.3453C53.9471 52.2928 53.765 52.0015 53.8452 51.7173C53.8544 51.6847 53.8726 51.6431 53.9088 51.56L53.9088 51.56L58.0225 42.1186C58.2307 41.6408 58.3348 41.4019 58.3557 41.308C58.5493 40.4388 57.5958 39.7691 56.8439 40.2462C56.7627 40.2977 56.5733 40.4767 56.1945 40.8346L56.1944 40.8347Z" fill="white" fill-opacity="0.9"/>
</g>
<defs>
<filter id="filter0_ddif_50_187" x="0.0442963" y="0.65416" width="103.007" height="109.568" filterUnits="userSpaceOnUse" color-interpolation-filters="sRGB">
<feFlood flood-opacity="0" result="BackgroundImageFix"/>
<feColorMatrix in="SourceAlpha" type="matrix" values="0 0 0 0 0 0 0 0 0 0 0 0 0 0 0 0 0 0 127 0" result="hardAlpha"/>
<feOffset/>
<feGaussianBlur stdDeviation="8.30174"/>
<feColorMatrix type="matrix" values="0 0 0 0 0.45098 0 0 0 0 1 0 0 0 0 0.890196 0 0 0 0.5 0"/>
<feBlend mode="normal" in2="BackgroundImageFix" result="effect1_dropShadow_50_187"/>
<feColorMatrix in="SourceAlpha" type="matrix" values="0 0 0 0 0 0 0 0 0 0 0 0 0 0 0 0 0 0 127 0" result="hardAlpha"/>
<feOffset/>
<feGaussianBlur stdDeviation="19.7166"/>
<feColorMatrix type="matrix" values="0 0 0 0 0.45098 0 0 0 0 1 0 0 0 0 0.890196 0 0 0 0.3 0"/>
<feBlend mode="normal" in2="effect1_dropShadow_50_187" result="effect2_dropShadow_50_187"/>
<feBlend mode="normal" in="SourceGraphic" in2="effect2_dropShadow_50_187" result="shape"/>
<feColorMatrix in="SourceAlpha" type="matrix" values="0 0 0 0 0 0 0 0 0 0 0 0 0 0 0 0 0 0 127 0" result="hardAlpha"/>
<feOffset/>
<feGaussianBlur stdDeviation="8.30174"/>
<feComposite in2="hardAlpha" operator="arithmetic" k2="-1" k3="1"/>
<feColorMatrix type="matrix" values="0 0 0 0 0.45098 0 0 0 0 1 0 0 0 0 0.890196 0 0 0 0.6 0"/>
<feBlend mode="normal" in2="shape" result="effect3_innerShadow_50_187"/>
<feGaussianBlur stdDeviation="0.518858" result="effect4_foregroundBlur_50_187"/>
</filter>
<linearGradient id="paint0_linear_50_187" x1="51.5" y1="37" x2="51.5" y2="74" gradientUnits="userSpaceOnUse">
<stop stop-color="white"/>
<stop offset="1" stop-color="white" stop-opacity="0"/>
</linearGradient>
</defs>
</svg>
