<svg width="116" height="115" viewBox="0 0 116 115" fill="none" xmlns="http://www.w3.org/2000/svg">
<g filter="url(#filter0_ddif_50_182)">
<path d="M55.9794 40.1248C47.6826 41.0267 41.0091 47.7002 40.1073 55.8166C39.2055 64.2938 44.0753 71.8691 51.4703 74.755C52.0114 74.9354 52.5525 74.5746 52.5525 73.8532V70.9673C52.5525 70.9673 51.831 71.1477 50.9292 71.1477C48.4041 71.1477 47.3219 68.9833 47.1415 67.7207C46.9612 66.9993 46.6004 66.4582 46.0593 65.9171C45.5182 65.7367 45.3379 65.7367 45.3379 65.5564C45.3379 65.1956 45.879 65.1956 46.0593 65.1956C47.1415 65.1956 48.0434 66.4582 48.4041 66.9993C49.3059 68.4422 50.3881 68.8029 50.9292 68.8029C51.6507 68.8029 52.1918 68.6226 52.5525 68.4422C52.7329 67.1796 53.274 65.9171 54.3562 65.1956C50.2077 64.2938 47.1415 61.9491 47.1415 57.981C47.1415 55.997 48.0434 54.013 49.3059 52.5701C49.1256 52.2093 48.9452 51.3075 48.9452 50.0449C48.9452 49.3235 48.9452 48.4216 49.3059 47.7002C49.3059 47.3395 49.6667 47.1591 49.847 47.1591H50.0274C50.9292 47.3395 52.7329 47.8806 54.3562 49.5038C55.4383 49.1431 56.7009 48.9627 57.9635 48.9627C59.226 48.9627 60.4886 49.1431 61.5708 49.5038C63.1941 47.8806 65.1781 47.3395 66.0799 47.1591H66.2603C66.621 47.1591 66.8014 47.3395 66.9817 47.7002C66.9817 48.4216 66.9817 49.3235 66.9817 50.0449C66.9817 51.4879 66.8014 52.2093 66.621 52.5701C67.8836 54.013 68.7854 55.8166 68.7854 57.981C68.7854 61.9491 65.7192 64.2938 61.5708 65.1956C62.653 66.0975 63.3744 67.7207 63.3744 69.344V74.0335C63.3744 74.5746 63.9155 75.1157 64.637 74.9354C71.3105 72.2299 76 65.7367 76 58.1614C76 47.3395 66.8014 38.8623 55.9794 40.1248Z" fill="url(#paint0_linear_50_182)"/>
<path d="M55.9794 40.1248C47.6826 41.0267 41.0091 47.7002 40.1073 55.8166C39.2055 64.2938 44.0753 71.8691 51.4703 74.755C52.0114 74.9354 52.5525 74.5746 52.5525 73.8532V70.9673C52.5525 70.9673 51.831 71.1477 50.9292 71.1477C48.4041 71.1477 47.3219 68.9833 47.1415 67.7207C46.9612 66.9993 46.6004 66.4582 46.0593 65.9171C45.5182 65.7367 45.3379 65.7367 45.3379 65.5564C45.3379 65.1956 45.879 65.1956 46.0593 65.1956C47.1415 65.1956 48.0434 66.4582 48.4041 66.9993C49.3059 68.4422 50.3881 68.8029 50.9292 68.8029C51.6507 68.8029 52.1918 68.6226 52.5525 68.4422C52.7329 67.1796 53.274 65.9171 54.3562 65.1956C50.2077 64.2938 47.1415 61.9491 47.1415 57.981C47.1415 55.997 48.0434 54.013 49.3059 52.5701C49.1256 52.2093 48.9452 51.3075 48.9452 50.0449C48.9452 49.3235 48.9452 48.4216 49.3059 47.7002C49.3059 47.3395 49.6667 47.1591 49.847 47.1591H50.0274C50.9292 47.3395 52.7329 47.8806 54.3562 49.5038C55.4383 49.1431 56.7009 48.9627 57.9635 48.9627C59.226 48.9627 60.4886 49.1431 61.5708 49.5038C63.1941 47.8806 65.1781 47.3395 66.0799 47.1591H66.2603C66.621 47.1591 66.8014 47.3395 66.9817 47.7002C66.9817 48.4216 66.9817 49.3235 66.9817 50.0449C66.9817 51.4879 66.8014 52.2093 66.621 52.5701C67.8836 54.013 68.7854 55.8166 68.7854 57.981C68.7854 61.9491 65.7192 64.2938 61.5708 65.1956C62.653 66.0975 63.3744 67.7207 63.3744 69.344V74.0335C63.3744 74.5746 63.9155 75.1157 64.637 74.9354C71.3105 72.2299 76 65.7367 76 58.1614C76 47.3395 66.8014 38.8623 55.9794 40.1248Z" fill="white" fill-opacity="0.9"/>
</g>
<defs>
<filter id="filter0_ddif_50_182" x="0.566757" y="0.566757" width="114.866" height="113.837" filterUnits="userSpaceOnUse" color-interpolation-filters="sRGB">
<feFlood flood-opacity="0" result="BackgroundImageFix"/>
<feColorMatrix in="SourceAlpha" type="matrix" values="0 0 0 0 0 0 0 0 0 0 0 0 0 0 0 0 0 0 127 0" result="hardAlpha"/>
<feOffset/>
<feGaussianBlur stdDeviation="8.30174"/>
<feColorMatrix type="matrix" values="0 0 0 0 0.45098 0 0 0 0 1 0 0 0 0 0.890196 0 0 0 0.5 0"/>
<feBlend mode="normal" in2="BackgroundImageFix" result="effect1_dropShadow_50_182"/>
<feColorMatrix in="SourceAlpha" type="matrix" values="0 0 0 0 0 0 0 0 0 0 0 0 0 0 0 0 0 0 127 0" result="hardAlpha"/>
<feOffset/>
<feGaussianBlur stdDeviation="19.7166"/>
<feColorMatrix type="matrix" values="0 0 0 0 0.45098 0 0 0 0 1 0 0 0 0 0.890196 0 0 0 0.3 0"/>
<feBlend mode="normal" in2="effect1_dropShadow_50_182" result="effect2_dropShadow_50_182"/>
<feBlend mode="normal" in="SourceGraphic" in2="effect2_dropShadow_50_182" result="shape"/>
<feColorMatrix in="SourceAlpha" type="matrix" values="0 0 0 0 0 0 0 0 0 0 0 0 0 0 0 0 0 0 127 0" result="hardAlpha"/>
<feOffset/>
<feGaussianBlur stdDeviation="8.30174"/>
<feComposite in2="hardAlpha" operator="arithmetic" k2="-1" k3="1"/>
<feColorMatrix type="matrix" values="0 0 0 0 0.45098 0 0 0 0 1 0 0 0 0 0.890196 0 0 0 0.6 0"/>
<feBlend mode="normal" in2="shape" result="effect3_innerShadow_50_182"/>
<feGaussianBlur stdDeviation="0.518858" result="effect4_foregroundBlur_50_182"/>
</filter>
<linearGradient id="paint0_linear_50_182" x1="58.1227" y1="28.433" x2="58.1227" y2="87.469" gradientUnits="userSpaceOnUse">
<stop stop-color="white"/>
<stop offset="1" stop-color="white" stop-opacity="0"/>
</linearGradient>
</defs>
</svg>
