<svg width="125" height="102" viewBox="0 0 125 102" fill="none" xmlns="http://www.w3.org/2000/svg">
<g filter="url(#filter0_ddif_50_183)">
<path d="M51.25 62.5C57.4632 62.5 62.5 57.4632 62.5 51.25C62.5 45.0368 57.4632 40 51.25 40C45.0368 40 40 45.0368 40 51.25C40 57.4632 45.0368 62.5 51.25 62.5Z" fill="url(#paint0_linear_50_183)"/>
<path d="M51.25 62.5C57.4632 62.5 62.5 57.4632 62.5 51.25C62.5 45.0368 57.4632 40 51.25 40C45.0368 40 40 45.0368 40 51.25C40 57.4632 45.0368 62.5 51.25 62.5Z" fill="white" fill-opacity="0.9"/>
<g opacity="0.35">
<path d="M70.9375 62.5C74.5619 62.5 77.5 57.4632 77.5 51.25C77.5 45.0368 74.5619 40 70.9375 40C67.3131 40 64.375 45.0368 64.375 51.25C64.375 57.4632 67.3131 62.5 70.9375 62.5Z" fill="url(#paint1_linear_50_183)"/>
<path d="M70.9375 62.5C74.5619 62.5 77.5 57.4632 77.5 51.25C77.5 45.0368 74.5619 40 70.9375 40C67.3131 40 64.375 45.0368 64.375 51.25C64.375 57.4632 67.3131 62.5 70.9375 62.5Z" fill="white" fill-opacity="0.9"/>
</g>
<path d="M82.1875 60.625C83.7408 60.625 85 56.4277 85 51.25C85 46.0723 83.7408 41.875 82.1875 41.875C80.6342 41.875 79.375 46.0723 79.375 51.25C79.375 56.4277 80.6342 60.625 82.1875 60.625Z" fill="url(#paint2_linear_50_183)"/>
<path d="M82.1875 60.625C83.7408 60.625 85 56.4277 85 51.25C85 46.0723 83.7408 41.875 82.1875 41.875C80.6342 41.875 79.375 46.0723 79.375 51.25C79.375 56.4277 80.6342 60.625 82.1875 60.625Z" fill="white" fill-opacity="0.9"/>
</g>
<defs>
<filter id="filter0_ddif_50_183" x="0.566757" y="0.566757" width="123.866" height="101.366" filterUnits="userSpaceOnUse" color-interpolation-filters="sRGB">
<feFlood flood-opacity="0" result="BackgroundImageFix"/>
<feColorMatrix in="SourceAlpha" type="matrix" values="0 0 0 0 0 0 0 0 0 0 0 0 0 0 0 0 0 0 127 0" result="hardAlpha"/>
<feOffset/>
<feGaussianBlur stdDeviation="8.30174"/>
<feColorMatrix type="matrix" values="0 0 0 0 0.45098 0 0 0 0 1 0 0 0 0 0.890196 0 0 0 0.5 0"/>
<feBlend mode="normal" in2="BackgroundImageFix" result="effect1_dropShadow_50_183"/>
<feColorMatrix in="SourceAlpha" type="matrix" values="0 0 0 0 0 0 0 0 0 0 0 0 0 0 0 0 0 0 127 0" result="hardAlpha"/>
<feOffset/>
<feGaussianBlur stdDeviation="19.7166"/>
<feColorMatrix type="matrix" values="0 0 0 0 0.45098 0 0 0 0 1 0 0 0 0 0.890196 0 0 0 0.3 0"/>
<feBlend mode="normal" in2="effect1_dropShadow_50_183" result="effect2_dropShadow_50_183"/>
<feBlend mode="normal" in="SourceGraphic" in2="effect2_dropShadow_50_183" result="shape"/>
<feColorMatrix in="SourceAlpha" type="matrix" values="0 0 0 0 0 0 0 0 0 0 0 0 0 0 0 0 0 0 127 0" result="hardAlpha"/>
<feOffset/>
<feGaussianBlur stdDeviation="8.30174"/>
<feComposite in2="hardAlpha" operator="arithmetic" k2="-1" k3="1"/>
<feColorMatrix type="matrix" values="0 0 0 0 0.45098 0 0 0 0 1 0 0 0 0 0.890196 0 0 0 0.6 0"/>
<feBlend mode="normal" in2="shape" result="effect3_innerShadow_50_183"/>
<feGaussianBlur stdDeviation="0.518858" result="effect4_foregroundBlur_50_183"/>
</filter>
<linearGradient id="paint0_linear_50_183" x1="51.3267" y1="32.5579" x2="51.3267" y2="70.5413" gradientUnits="userSpaceOnUse">
<stop stop-color="white"/>
<stop offset="1" stop-color="white" stop-opacity="0"/>
</linearGradient>
<linearGradient id="paint1_linear_50_183" x1="70.9822" y1="32.5579" x2="70.9822" y2="70.5413" gradientUnits="userSpaceOnUse">
<stop stop-color="white"/>
<stop offset="1" stop-color="white" stop-opacity="0"/>
</linearGradient>
<linearGradient id="paint2_linear_50_183" x1="82.2067" y1="35.6732" x2="82.2067" y2="67.3261" gradientUnits="userSpaceOnUse">
<stop stop-color="white"/>
<stop offset="1" stop-color="white" stop-opacity="0"/>
</linearGradient>
</defs>
</svg>
